{
	"asset":{
		"generator":"Khronos glTF Blender I/O v4.1.63",
		"version":"2.0"
	},
	"scene":0,
	"scenes":[
		{
			"name":"Scene",
			"nodes":[
				0
			]
		}
	],
	"nodes":[
		{
			"mesh":0,
			"name":"Plane.014",
			"rotation":[
				0.7071068286895752,
				0,
				0,
				0.7071068286895752
			],
			"scale":[
				0.009654248133301735,
				0.009654248133301735,
				0.009654248133301735
			],
			"translation":[
				-0.01709512062370777,
				0.20907452702522278,
				0.0008998839184641838
			]
		}
	],
	"materials":[
		{
			"doubleSided":true,
			"name":"Material.009",
			"pbrMetallicRoughness":{
				"baseColorFactor":[
					0.011134314350783825,
					0.011134314350783825,
					0.011134314350783825,
					1
				],
				"metallicFactor":0,
				"roughnessFactor":0.5
			}
		},
		{
			"doubleSided":true,
			"name":"Material.001",
			"pbrMetallicRoughness":{
				"baseColorFactor":[
					0.7681514024734497,
					0.02121901698410511,
					0.016807381063699722,
					1
				],
				"metallicFactor":0.5289256572723389,
				"roughnessFactor":0.5
			}
		},
		{
			"doubleSided":true,
			"name":"Material.004",
			"pbrMetallicRoughness":{
				"baseColorFactor":[
					0.011849532835185528,
					0.009438066743314266,
					0.02342349663376808,
					1
				],
				"metallicFactor":0,
				"roughnessFactor":0.5
			}
		},
		{
			"doubleSided":true,
			"name":"Material.002",
			"pbrMetallicRoughness":{
				"baseColorFactor":[
					0.014450915157794952,
					0.015035074204206467,
					0.01606656238436699,
					1
				],
				"metallicFactor":0,
				"roughnessFactor":0.797520637512207
			}
		},
		{
			"doubleSided":true,
			"name":"Material.007",
			"pbrMetallicRoughness":{
				"baseColorFactor":[
					0.12307187169790268,
					0.3575644791126251,
					0.6350926160812378,
					1
				],
				"metallicFactor":0,
				"roughnessFactor":0.5
			}
		},
		{
			"doubleSided":true,
			"name":"Material.003",
			"pbrMetallicRoughness":{
				"baseColorFactor":[
					1,
					0.6514057517051697,
					0.0018211622955277562,
					1
				],
				"metallicFactor":0,
				"roughnessFactor":0.5
			}
		},
		{
			"doubleSided":true,
			"name":"Material.008",
			"pbrMetallicRoughness":{
				"baseColorFactor":[
					0.800000011920929,
					0.800000011920929,
					0.800000011920929,
					1
				],
				"metallicFactor":0,
				"roughnessFactor":0.4000000059604645
			}
		},
		{
			"doubleSided":true,
			"name":"Material.005",
			"pbrMetallicRoughness":{
				"baseColorFactor":[
					0.7230553030967712,
					0.35153263807296753,
					0.02121901698410511,
					1
				],
				"metallicFactor":0,
				"roughnessFactor":0.5
			}
		}
	],
	"meshes":[
		{
			"name":"Plane.017",
			"primitives":[
				{
					"attributes":{
						"POSITION":0,
						"NORMAL":1,
						"TEXCOORD_0":2
					},
					"indices":3,
					"material":0
				},
				{
					"attributes":{
						"POSITION":4,
						"NORMAL":5,
						"TEXCOORD_0":6
					},
					"indices":7,
					"material":1
				},
				{
					"attributes":{
						"POSITION":8,
						"NORMAL":9,
						"TEXCOORD_0":10
					},
					"indices":11,
					"material":2
				},
				{
					"attributes":{
						"POSITION":12,
						"NORMAL":13,
						"TEXCOORD_0":14
					},
					"indices":15,
					"material":3
				},
				{
					"attributes":{
						"POSITION":16,
						"NORMAL":17,
						"TEXCOORD_0":18
					},
					"indices":19,
					"material":4
				},
				{
					"attributes":{
						"POSITION":20,
						"NORMAL":21,
						"TEXCOORD_0":22
					},
					"indices":23,
					"material":5
				},
				{
					"attributes":{
						"POSITION":24,
						"NORMAL":25,
						"TEXCOORD_0":26
					},
					"indices":27,
					"material":6
				},
				{
					"attributes":{
						"POSITION":28,
						"NORMAL":29,
						"TEXCOORD_0":30
					},
					"indices":31,
					"material":7
				}
			]
		}
	],
	"accessors":[
		{
			"bufferView":0,
			"componentType":5126,
			"count":680,
			"max":[
				11.967927932739258,
				0.0037344172596931458,
				6.455677032470703
			],
			"min":[
				-7.981068134307861,
				-0.015572473406791687,
				-3.3078677654266357
			],
			"type":"VEC3"
		},
		{
			"bufferView":1,
			"componentType":5126,
			"count":680,
			"type":"VEC3"
		},
		{
			"bufferView":2,
			"componentType":5126,
			"count":680,
			"type":"VEC2"
		},
		{
			"bufferView":3,
			"componentType":5123,
			"count":1926,
			"type":"SCALAR"
		},
		{
			"bufferView":4,
			"componentType":5126,
			"count":51920,
			"max":[
				17.698745727539062,
				2.4141407012939453,
				55.04682922363281
			],
			"min":[
				-14.157275199890137,
				-5.8864288330078125,
				-11.591289520263672
			],
			"type":"VEC3"
		},
		{
			"bufferView":5,
			"componentType":5126,
			"count":51920,
			"type":"VEC3"
		},
		{
			"bufferView":6,
			"componentType":5126,
			"count":51920,
			"type":"VEC2"
		},
		{
			"bufferView":7,
			"componentType":5123,
			"count":210429,
			"type":"SCALAR"
		},
		{
			"bufferView":8,
			"componentType":5126,
			"count":42619,
			"max":[
				15.232634544372559,
				3.1659438610076904,
				51.88373565673828
			],
			"min":[
				-11.691163063049316,
				-2.484184741973877,
				-6.486072540283203
			],
			"type":"VEC3"
		},
		{
			"bufferView":9,
			"componentType":5126,
			"count":42619,
			"type":"VEC3"
		},
		{
			"bufferView":10,
			"componentType":5126,
			"count":42619,
			"type":"VEC2"
		},
		{
			"bufferView":11,
			"componentType":5123,
			"count":160893,
			"type":"SCALAR"
		},
		{
			"bufferView":12,
			"componentType":5126,
			"count":38643,
			"max":[
				18.651927947998047,
				2.3949685096740723,
				55.10221862792969
			],
			"min":[
				-15.110457420349121,
				-6.816195487976074,
				-9.164264678955078
			],
			"type":"VEC3"
		},
		{
			"bufferView":13,
			"componentType":5126,
			"count":38643,
			"type":"VEC3"
		},
		{
			"bufferView":14,
			"componentType":5126,
			"count":38643,
			"type":"VEC2"
		},
		{
			"bufferView":15,
			"componentType":5123,
			"count":209232,
			"type":"SCALAR"
		},
		{
			"bufferView":16,
			"componentType":5126,
			"count":873,
			"max":[
				6.179471015930176,
				2.3949685096740723,
				16.22115135192871
			],
			"min":[
				3.2972960472106934,
				1.075937271118164,
				13.163009643554688
			],
			"type":"VEC3"
		},
		{
			"bufferView":17,
			"componentType":5126,
			"count":873,
			"type":"VEC3"
		},
		{
			"bufferView":18,
			"componentType":5126,
			"count":873,
			"type":"VEC2"
		},
		{
			"bufferView":19,
			"componentType":5123,
			"count":4608,
			"type":"SCALAR"
		},
		{
			"bufferView":20,
			"componentType":5126,
			"count":4238,
			"max":[
				8.352485656738281,
				2.8257975578308105,
				36.555816650390625
			],
			"min":[
				-7.442584991455078,
				0.25294065475463867,
				13.00901985168457
			],
			"type":"VEC3"
		},
		{
			"bufferView":21,
			"componentType":5126,
			"count":4238,
			"type":"VEC3"
		},
		{
			"bufferView":22,
			"componentType":5126,
			"count":4238,
			"type":"VEC2"
		},
		{
			"bufferView":23,
			"componentType":5123,
			"count":24960,
			"type":"SCALAR"
		},
		{
			"bufferView":24,
			"componentType":5126,
			"count":902,
			"max":[
				12.199729919433594,
				-0.03751111030578613,
				8.873390197753906
			],
			"min":[
				-8.658258438110352,
				-0.03751230239868164,
				-3.669259548187256
			],
			"type":"VEC3"
		},
		{
			"bufferView":25,
			"componentType":5126,
			"count":902,
			"type":"VEC3"
		},
		{
			"bufferView":26,
			"componentType":5126,
			"count":902,
			"type":"VEC2"
		},
		{
			"bufferView":27,
			"componentType":5123,
			"count":4608,
			"type":"SCALAR"
		},
		{
			"bufferView":28,
			"componentType":5126,
			"count":704,
			"max":[
				8.063189506530762,
				2.027336597442627,
				50.90296173095703
			],
			"min":[
				5.53249454498291,
				2.027336597442627,
				50.00492858886719
			],
			"type":"VEC3"
		},
		{
			"bufferView":29,
			"componentType":5126,
			"count":704,
			"type":"VEC3"
		},
		{
			"bufferView":30,
			"componentType":5126,
			"count":704,
			"type":"VEC2"
		},
		{
			"bufferView":31,
			"componentType":5123,
			"count":2100,
			"type":"SCALAR"
		}
	],
	"bufferViews":[
		{
			"buffer":0,
			"byteLength":8160,
			"byteOffset":0,
			"target":34962
		},
		{
			"buffer":0,
			"byteLength":8160,
			"byteOffset":8160,
			"target":34962
		},
		{
			"buffer":0,
			"byteLength":5440,
			"byteOffset":16320,
			"target":34962
		},
		{
			"buffer":0,
			"byteLength":3852,
			"byteOffset":21760,
			"target":34963
		},
		{
			"buffer":0,
			"byteLength":623040,
			"byteOffset":25612,
			"target":34962
		},
		{
			"buffer":0,
			"byteLength":623040,
			"byteOffset":648652,
			"target":34962
		},
		{
			"buffer":0,
			"byteLength":415360,
			"byteOffset":1271692,
			"target":34962
		},
		{
			"buffer":0,
			"byteLength":420858,
			"byteOffset":1687052,
			"target":34963
		},
		{
			"buffer":0,
			"byteLength":511428,
			"byteOffset":2107912,
			"target":34962
		},
		{
			"buffer":0,
			"byteLength":511428,
			"byteOffset":2619340,
			"target":34962
		},
		{
			"buffer":0,
			"byteLength":340952,
			"byteOffset":3130768,
			"target":34962
		},
		{
			"buffer":0,
			"byteLength":321786,
			"byteOffset":3471720,
			"target":34963
		},
		{
			"buffer":0,
			"byteLength":463716,
			"byteOffset":3793508,
			"target":34962
		},
		{
			"buffer":0,
			"byteLength":463716,
			"byteOffset":4257224,
			"target":34962
		},
		{
			"buffer":0,
			"byteLength":309144,
			"byteOffset":4720940,
			"target":34962
		},
		{
			"buffer":0,
			"byteLength":418464,
			"byteOffset":5030084,
			"target":34963
		},
		{
			"buffer":0,
			"byteLength":10476,
			"byteOffset":5448548,
			"target":34962
		},
		{
			"buffer":0,
			"byteLength":10476,
			"byteOffset":5459024,
			"target":34962
		},
		{
			"buffer":0,
			"byteLength":6984,
			"byteOffset":5469500,
			"target":34962
		},
		{
			"buffer":0,
			"byteLength":9216,
			"byteOffset":5476484,
			"target":34963
		},
		{
			"buffer":0,
			"byteLength":50856,
			"byteOffset":5485700,
			"target":34962
		},
		{
			"buffer":0,
			"byteLength":50856,
			"byteOffset":5536556,
			"target":34962
		},
		{
			"buffer":0,
			"byteLength":33904,
			"byteOffset":5587412,
			"target":34962
		},
		{
			"buffer":0,
			"byteLength":49920,
			"byteOffset":5621316,
			"target":34963
		},
		{
			"buffer":0,
			"byteLength":10824,
			"byteOffset":5671236,
			"target":34962
		},
		{
			"buffer":0,
			"byteLength":10824,
			"byteOffset":5682060,
			"target":34962
		},
		{
			"buffer":0,
			"byteLength":7216,
			"byteOffset":5692884,
			"target":34962
		},
		{
			"buffer":0,
			"byteLength":9216,
			"byteOffset":5700100,
			"target":34963
		},
		{
			"buffer":0,
			"byteLength":8448,
			"byteOffset":5709316,
			"target":34962
		},
		{
			"buffer":0,
			"byteLength":8448,
			"byteOffset":5717764,
			"target":34962
		},
		{
			"buffer":0,
			"byteLength":5632,
			"byteOffset":5726212,
			"target":34962
		},
		{
			"buffer":0,
			"byteLength":4200,
			"byteOffset":5731844,
			"target":34963
		}
	],
	"buffers":[
		{
			"byteLength":5736044,
			"uri":"multimeter.bin"
		}
	]
}
