{
	"asset":{
		"generator":"Khronos glTF Blender I/O v4.1.63",
		"version":"2.0"
	},
	"extensionsUsed":[
		"KHR_materials_transmission",
		"KHR_materials_specular"
	],
	"scene":0,
	"scenes":[
		{
			"name":"Scene",
			"nodes":[
				0
			]
		}
	],
	"nodes":[
		{
			"mesh":0,
			"name":"13073_Combination_Wrench_v1_l3",
			"rotation":[
				0.7071068286895752,
				0,
				0,
				0.7071068286895752
			],
			"scale":[
				0.25232309103012085,
				0.25232309103012085,
				0.25232309103012085
			]
		}
	],
	"materials":[
		{
			"doubleSided":true,
			"extensions":{
				"KHR_materials_transmission":{
					"transmissionFactor":1
				},
				"KHR_materials_specular":{
					"specularColorFactor":[
						1.350000023841858,
						1.350000023841858,
						1.350000023841858
					]
				}
			},
			"name":"Combination_Wrench",
			"normalTexture":{
				"index":0,
				"scale":0
			},
			"pbrMetallicRoughness":{
				"baseColorFactor":[
					0.8077999949455261,
					0.8156999945640564,
					0.819599986076355,
					1
				],
				"metallicFactor":0,
				"roughnessFactor":0.745048999786377
			}
		}
	],
	"meshes":[
		{
			"name":"13073_Combination_Wrench_v1_l3",
			"primitives":[
				{
					"attributes":{
						"POSITION":0,
						"NORMAL":1,
						"TEXCOORD_0":2
					},
					"indices":3,
					"material":0
				}
			]
		}
	],
	"textures":[
		{
			"sampler":0,
			"source":0
		}
	],
	"images":[
		{
			"mimeType":"image/jpeg",
			"name":"Combination_Wrench_bump",
			"uri":"Combination_Wrench_bump.jpg"
		}
	],
	"accessors":[
		{
			"bufferView":0,
			"componentType":5126,
			"count":13334,
			"max":[
				4.000199794769287,
				0.6367999911308289,
				0.4909999966621399
			],
			"min":[
				-4.112100124359131,
				0.031700000166893005,
				-0.7696999907493591
			],
			"type":"VEC3"
		},
		{
			"bufferView":1,
			"componentType":5126,
			"count":13334,
			"type":"VEC3"
		},
		{
			"bufferView":2,
			"componentType":5126,
			"count":13334,
			"type":"VEC2"
		},
		{
			"bufferView":3,
			"componentType":5123,
			"count":69408,
			"type":"SCALAR"
		}
	],
	"bufferViews":[
		{
			"buffer":0,
			"byteLength":160008,
			"byteOffset":0,
			"target":34962
		},
		{
			"buffer":0,
			"byteLength":160008,
			"byteOffset":160008,
			"target":34962
		},
		{
			"buffer":0,
			"byteLength":106672,
			"byteOffset":320016,
			"target":34962
		},
		{
			"buffer":0,
			"byteLength":138816,
			"byteOffset":426688,
			"target":34963
		}
	],
	"samplers":[
		{
			"magFilter":9729,
			"minFilter":9987
		}
	],
	"buffers":[
		{
			"byteLength":565504,
			"uri":"wrench.bin"
		}
	]
}
