{
	"asset":{
		"generator":"Khronos glTF Blender I/O v4.1.63",
		"version":"2.0"
	},
	"extensionsUsed":[
		"KHR_materials_transmission",
		"KHR_materials_specular"
	],
	"scene":0,
	"scenes":[
		{
			"name":"Scene",
			"nodes":[
				0
			]
		}
	],
	"nodes":[
		{
			"mesh":0,
			"name":"10287_Flat_Head_Screwdriver_v2_iterations-2",
			"rotation":[
				0.7071068286895752,
				0,
				0,
				0.7071068286895752
			],
			"scale":[
				0.10295003652572632,
				0.10295003652572632,
				0.10295003652572632
			]
		}
	],
	"materials":[
		{
			"alphaMode":"BLEND",
			"doubleSided":true,
			"extensions":{
				"KHR_materials_transmission":{
					"transmissionFactor":0.5
				},
				"KHR_materials_specular":{
					"specularFactor":0
				}
			},
			"name":"10287_Flat_Head_Glass",
			"pbrMetallicRoughness":{
				"baseColorFactor":[
					1,
					1,
					1,
					0.5
				],
				"baseColorTexture":{
					"index":0
				},
				"metallicFactor":0,
				"roughnessFactor":0.8999999761581421
			}
		},
		{
			"doubleSided":true,
			"extensions":{
				"KHR_materials_transmission":{
					"transmissionFactor":1
				},
				"KHR_materials_specular":{
					"specularFactor":0
				}
			},
			"name":"10287_Flat_Head",
			"pbrMetallicRoughness":{
				"baseColorTexture":{
					"index":1
				},
				"metallicFactor":0,
				"roughnessFactor":0.8999999761581421
			}
		}
	],
	"meshes":[
		{
			"name":"10287_Flat_Head_Screwdriver_v2_iterations-2",
			"primitives":[
				{
					"attributes":{
						"POSITION":0,
						"NORMAL":1,
						"TEXCOORD_0":2
					},
					"indices":3,
					"material":0
				},
				{
					"attributes":{
						"POSITION":4,
						"NORMAL":5,
						"TEXCOORD_0":6
					},
					"indices":7,
					"material":1
				}
			]
		}
	],
	"textures":[
		{
			"sampler":0,
			"source":0
		},
		{
			"sampler":0,
			"source":0
		}
	],
	"images":[
		{
			"mimeType":"image/jpeg",
			"name":"10287_Flat Head Screwdriver_v1_Diffuse",
			"uri":"10287_Flat%20Head%20Screwdriver_v1_Diffuse.jpg"
		}
	],
	"accessors":[
		{
			"bufferView":0,
			"componentType":5126,
			"count":5906,
			"max":[
				1.0723999738693237,
				1.992300033569336,
				-0.41200000047683716
			],
			"min":[
				-1.0723999738693237,
				0.012900000438094139,
				-9.856800079345703
			],
			"type":"VEC3"
		},
		{
			"bufferView":1,
			"componentType":5126,
			"count":5906,
			"type":"VEC3"
		},
		{
			"bufferView":2,
			"componentType":5126,
			"count":5906,
			"type":"VEC2"
		},
		{
			"bufferView":3,
			"componentType":5123,
			"count":34272,
			"type":"SCALAR"
		},
		{
			"bufferView":4,
			"componentType":5126,
			"count":2129,
			"max":[
				0.5156999826431274,
				1.8406000137329102,
				11.139399528503418
			],
			"min":[
				-1.055899977684021,
				0.7024000287055969,
				-9.840200424194336
			],
			"type":"VEC3"
		},
		{
			"bufferView":5,
			"componentType":5126,
			"count":2129,
			"type":"VEC3"
		},
		{
			"bufferView":6,
			"componentType":5126,
			"count":2129,
			"type":"VEC2"
		},
		{
			"bufferView":7,
			"componentType":5123,
			"count":11280,
			"type":"SCALAR"
		}
	],
	"bufferViews":[
		{
			"buffer":0,
			"byteLength":70872,
			"byteOffset":0,
			"target":34962
		},
		{
			"buffer":0,
			"byteLength":70872,
			"byteOffset":70872,
			"target":34962
		},
		{
			"buffer":0,
			"byteLength":47248,
			"byteOffset":141744,
			"target":34962
		},
		{
			"buffer":0,
			"byteLength":68544,
			"byteOffset":188992,
			"target":34963
		},
		{
			"buffer":0,
			"byteLength":25548,
			"byteOffset":257536,
			"target":34962
		},
		{
			"buffer":0,
			"byteLength":25548,
			"byteOffset":283084,
			"target":34962
		},
		{
			"buffer":0,
			"byteLength":17032,
			"byteOffset":308632,
			"target":34962
		},
		{
			"buffer":0,
			"byteLength":22560,
			"byteOffset":325664,
			"target":34963
		}
	],
	"samplers":[
		{
			"magFilter":9729,
			"minFilter":9987
		}
	],
	"buffers":[
		{
			"byteLength":348224,
			"uri":"screwdriver.bin"
		}
	]
}
